<?xml version="1.0" standalone="no"?><!DOCTYPE svg PUBLIC "-//W3C//DTD SVG 1.1//EN" "http://www.w3.org/Graphics/SVG/1.1/DTD/svg11.dtd"><svg class="icon" width="30px" height="30.00px" viewBox="0 0 1024 1024" version="1.1" xmlns="http://www.w3.org/2000/svg"><path d="M510.7712 1024A409.6 409.6 0 1 1 510.7712 204.8a409.6 409.6 0 0 1 0 819.2z m0-281.6l150.4768 79.104-28.7232-167.5264 121.7024-118.6816-168.2432-24.4736L510.7712 358.4 435.5072 510.8224l-168.192 24.4736 121.7024 118.6816-28.672 167.5264L510.7712 742.4z" fill="#7C65A5" /><path d="M550.5536 155.2896L614.7072 0h359.3216l-123.904 302.6944a459.6224 459.6224 0 0 0-299.5712-147.4048zM173.1072 300.8512L49.9712 0h359.3216L473.3952 155.136a459.5712 459.5712 0 0 0-300.288 145.7152z" fill="#7C65A5" /></svg>