<?xml version="1.0" standalone="no"?><!DOCTYPE svg PUBLIC "-//W3C//DTD SVG 1.1//EN" "http://www.w3.org/Graphics/SVG/1.1/DTD/svg11.dtd"><svg class="icon" width="30px" height="30.00px" viewBox="0 0 1024 1024" version="1.1" xmlns="http://www.w3.org/2000/svg"><path d="M911.419883 344.73968L659.442027 479.224016c-69.584094 37.137466-182.393762 37.137466-251.977855 0L155.496296 344.73968c-69.584094-37.136468-69.584094-97.349864 0-134.5023L407.464172 75.752047c69.584094-37.136468 182.393762-37.136468 251.977855 0L911.419883 210.23738c69.574113 37.152437 69.574113 97.36184 0 134.5023z m-251.977856 363.989084c-69.584094 37.137466-182.393762 37.137466-251.977855 0L155.496296 574.248421c-63.705575-34.023548-69.075088-87.359376-16.128499-124.631579a153.220741 153.220741 0 0 0 16.128499 9.874714L407.464172 593.979883c69.584094 37.137466 182.393762 37.137466 251.977855 0L911.419883 459.491556a154.078066 154.078066 0 0 0 16.118519-9.874714c52.946589 37.272203 47.587057 90.608031-16.118519 124.631579z m-520.07423-29.602183a154.585076 154.585076 0 0 0 16.128499 9.870721l251.967876 134.48733c69.584094 37.137466 182.393762 37.137466 251.977855 0l251.977856-134.48733a154.408421 154.408421 0 0 0 16.118519-9.870721c52.946589 37.267212 47.587057 90.613021-16.118519 124.626589l-251.977856 134.487329c-69.584094 37.137466-182.393762 37.137466-251.977855 0L155.496296 803.750175c-63.705575-34.013567-69.075088-87.359376-16.128499-124.626588z" fill="#7C65A5" /></svg>